<svg height="16" version="1.1" viewBox="0 0 1024 1024" width="16" xmlns="http://www.w3.org/2000/svg">
    <path d="M817.6 641.2l56.2 189.6H149.6l56.9-189.6h-66.8L63.5 894.8h896l-75.2-253.6zM852.4 426.5c-5.9-8.1-13.5-14.8-22.7-19.9 16.3-14.1 24.8-32.8 24.8-55.1 0-25.2-9.9-45.4-29.5-60-18.5-13.8-43.6-20.8-74.8-20.8h-108V347c-6.3-15.5-15-28.7-26.2-39.6-25.1-24.4-62.6-36.7-111.4-36.7h-97.5V491l-89.9-220.3h-54.7L149.8 564.2h63.6l29.8-82h96.2l31.3 82H504.6c48.8 0 86.3-12.6 111.5-37.5 11.1-11 19.8-24.5 26.1-40.3v77.8h112.9c35.3 0 63-7.7 82.2-22.8 20.1-15.8 30.3-38.5 30.3-67.5 0.1-17.6-5-33.6-15.2-47.4z m-590.8 3.4l28.4-78.5 29.8 78.5h-58.2z m312.9 55.6c-11.8 15.1-35.5 22.7-70.5 22.7h-37.1V326.7H504c35.2 0 59 7.4 70.7 22 12.3 15.4 18.6 38 18.6 67.3-0.1 30.2-6.4 53.6-18.8 69.5z m127.4-158.8h44.6c24.5 0 35.4 4.2 40.1 7.7 3.7 2.8 8.7 7.9 8.7 20.2 0 15.7-6.6 20.1-8.7 21.6-5 3.4-15.4 7.4-36.8 7.4h-47.9v-56.9z m52.9 181.5h-52.9v-68.7h48.3c28.9 0 41.3 4.7 46.6 8.7 6.7 5.1 10 13.4 10 25.6-0.1 16.1-6 34.4-52 34.4zM188.8 160.5h643.5v64H188.8z" fill="#666666" />
</svg>